<?xml version="1.0" encoding="UTF-8"?>
<svg version="1.1" xmlns="http://www.w3.org/2000/svg" width="973" height="574">
<path d="M0 0 C321.09 0 642.18 0 973 0 C973 189.42 973 378.84 973 574 C651.91 574 330.82 574 0 574 C0 384.58 0 195.16 0 0 Z " fill="#FEFEFE" transform="translate(0,0)"/>
<path d="M0 0 C2.91718352 2.67408489 5.46356902 5.52924233 8 8.5625 C10.43195146 11.44227883 13.00554608 13.69657391 16 16 C18.47634358 18.41443499 20.87412366 20.86137952 23.19921875 23.421875 C26.37171377 26.3421633 29.44119841 28.00642418 33.3125 29.8125 C33.95767578 30.12380859 34.60285156 30.43511719 35.26757812 30.75585938 C36.84059344 31.51323712 38.41969126 32.25796058 40 33 C40 33.66 40 34.32 40 35 C40.66 35 41.32 35 42 35 C43.71146412 38.1252823 44.94747278 40.5622732 45.375 44.125 C46.21231241 47.97663707 47.82736142 48.76473191 51 51 C54.94635237 54.73303602 58.49123788 58.79025831 62.08203125 62.859375 C65.16045885 66.29517607 68.44164608 69.47886967 71.8125 72.625 C74 75 74 75 74 78 C72.37204792 79.87872533 70.74545872 81.5780053 68.9609375 83.296875 C68.44246246 83.80873352 67.92398743 84.32059204 67.38980103 84.84796143 C65.72512703 86.48920162 64.05069005 88.12001496 62.375 89.75 C60.19154354 91.8868096 58.01246062 94.02800482 55.8359375 96.171875 C55.31424484 96.6845694 54.79255219 97.19726379 54.25505066 97.72549438 C50.61432173 101.32685954 47.27362283 105.06736636 44 109 C42.35704805 110.36244796 40.69175663 111.69864875 39 113 C37.31237149 114.6454378 35.6459651 116.31288577 34 118 C31.48909203 120.51090797 28.97923975 123.0202539 26.4375 125.5 C24.00543753 127.89390968 24.00543753 127.89390968 22.1875 130.375 C19.68840675 133.3739119 16.91464368 135.76959114 13.95703125 138.3046875 C10.61400559 141.20064187 7.61784863 144.21860321 4.875 147.6875 C3 150 3 150 0 152 C-4.0840777 151.60830836 -5.65266962 149.34956915 -8.26489258 146.33862305 C-13.60460869 140.06537349 -13.60460869 140.06537349 -20.96484375 136.91796875 C-24.3707189 136.71396202 -27.60438248 136.68945627 -31 137 C-31.01417969 136.03578125 -31.02835938 135.0715625 -31.04296875 134.078125 C-31.09066406 132.81484375 -31.13835937 131.5515625 -31.1875 130.25 C-31.23970703 128.37054688 -31.23970703 128.37054688 -31.29296875 126.453125 C-32.1672699 122.1830575 -33.4745422 121.38906585 -37 119 C-38.40625 117.21875 -38.40625 117.21875 -39.5 115.5 C-41.64476882 112.34632124 -43.98200726 110.35550653 -47 108 C-48.02102341 106.85168719 -49.01975507 105.68331357 -50 104.5 C-52.42858092 101.58073393 -54.98213601 99.32143384 -58 97 C-59.68762851 95.3545622 -61.3540349 93.68711423 -63 92 C-63.825 91.175 -64.65 90.35 -65.5 89.5 C-66.325 88.675 -67.15 87.85 -68 87 C-68.825 86.195625 -69.65 85.39125 -70.5 84.5625 C-73.17621765 81.81937691 -75.56136105 78.95481753 -78 76 C-77.45986771 75.46208832 -76.91973541 74.92417664 -76.36323547 74.3699646 C-71.25575624 69.28258154 -66.15073183 64.19275336 -61.04839802 59.10021019 C-58.42560598 56.48262093 -55.80189856 53.8659635 -53.17602539 51.25146484 C-50.63859297 48.72495431 -48.10366183 46.19595827 -45.57039452 43.66527176 C-44.60690873 42.70362354 -43.64254809 41.74285098 -42.67727089 40.78300095 C-36.67588295 34.87021482 -36.67588295 34.87021482 -31.09887695 28.56518555 C-29.27464406 26.33566188 -27.51758456 24.56881423 -25.3046875 22.74609375 C-19.3564126 17.67092167 -13.9953491 12.00439103 -8.5390625 6.41210938 C-7.724375 5.58646484 -6.9096875 4.76082031 -6.0703125 3.91015625 C-5.33570801 3.15871338 -4.60110352 2.40727051 -3.84423828 1.63305664 C-2 0 -2 0 0 0 Z " fill="#F3F3CC" transform="translate(279,201)"/>
<path d="M0 0 C8.25 0 16.5 0 25 0 C25.20496094 1.86527344 25.40992188 3.73054687 25.62109375 5.65234375 C25.89300077 8.08075475 26.16514859 10.5091388 26.4375 12.9375 C26.57220703 14.16919922 26.70691406 15.40089844 26.84570312 16.66992188 C27.04389648 18.4246582 27.04389648 18.4246582 27.24609375 20.21484375 C27.36654053 21.29886475 27.4869873 22.38288574 27.61108398 23.49975586 C27.73802803 25.93470137 27.73802803 25.93470137 29 27 C29.39993686 29.68862664 29.75134543 32.36352217 30.0625 35.0625 C30.15337891 35.82111328 30.24425781 36.57972656 30.33789062 37.36132812 C30.5624374 39.2404301 30.78170978 41.12016095 31 43 C31.5549965 38.80532177 32.10615763 34.61016104 32.65405273 30.41455078 C32.8402215 28.99286924 33.02736541 27.57131499 33.21557617 26.14990234 C33.48885369 24.08465306 33.75839812 22.01894237 34.02734375 19.953125 C34.18968506 18.71723633 34.35202637 17.48134766 34.51928711 16.20800781 C35.13504067 10.81789695 35.54946432 5.40642813 36 0 C44.58 0 53.16 0 62 0 C62 26.07 62 52.14 62 79 C57.05 79 52.1 79 47 79 C46.67 64.48 46.34 49.96 46 35 C45.34 35 44.68 35 44 35 C43.95174072 35.8264502 43.90348145 36.65290039 43.85375977 37.50439453 C43.26426412 46.68926147 42.20368168 55.76160455 40.9375 64.875 C40.7489426 66.25645501 40.56078978 67.63796531 40.37304688 69.01953125 C39.91931541 72.34689531 39.46022617 75.67352804 39 79 C33.39 79 27.78 79 22 79 C21.65066406 76.29167969 21.30132812 73.58335937 20.94140625 70.79296875 C20.60122201 68.17169965 20.26001164 65.55056603 19.91870117 62.92944336 C19.68194957 61.10699148 19.44626588 59.28440054 19.21166992 57.46166992 C18.87438776 54.84256337 18.533275 52.22398006 18.19140625 49.60546875 C18.08719864 48.78974899 17.98299103 47.97402924 17.87562561 47.1335907 C17.45874723 43.96386697 17.01365251 41.04095753 16 38 C15.67 51.53 15.34 65.06 15 79 C10.05 79 5.1 79 0 79 C0 52.93 0 26.86 0 0 Z " fill="#A25ED5" transform="translate(488,226)"/>
<path d="M0 0 C0.33 0.66 0.66 1.32 1 2 C1.33 1.01 1.66 0.02 2 -1 C7.61 -1 13.22 -1 19 -1 C19.04535528 6.79796831 19.08197588 14.59586328 19.10362434 22.39392757 C19.11401947 26.01567969 19.12809965 29.63733613 19.15087891 33.2590332 C19.17276092 36.76036571 19.18460067 40.26160674 19.18975449 43.7630024 C19.1951966 45.73533778 19.21078449 47.70763685 19.22659302 49.67991638 C19.22857039 65.65714442 19.22857039 65.65714442 15 72 C14.34 72 13.68 72 13 72 C12.505 73.485 12.505 73.485 12 75 C6.5580419 77.13101644 1.35968536 77.36579081 -4.4375 77.375 C-5.24509766 77.39949219 -6.05269531 77.42398438 -6.88476562 77.44921875 C-12.9523649 77.47855444 -16.75797623 76.04530887 -22 73 C-21.67 71.02 -21.34 69.04 -21 67 C-20.34 67 -19.68 67 -19 67 C-19 66.34 -19 65.68 -19 65 C-15.51377324 64.12844331 -13.42614267 64.09307988 -10 65 C-6.30493178 65.12965152 -3.51784183 65.17261394 0 64 C0.33 61.69 0.66 59.38 1 57 C0.18015625 57.72896484 0.18015625 57.72896484 -0.65625 58.47265625 C-4.75680696 61.14485253 -9.27767469 60.64591076 -14 60 C-17.15362593 57.97266904 -17.7735611 56.83027598 -18.75 53.25 C-18.8325 52.5075 -18.915 51.765 -19 51 C-19.66 51 -20.32 51 -21 51 C-22.24764266 47.25707201 -22.16234703 43.7587614 -22.16796875 39.859375 C-22.17129715 39.0589679 -22.17462555 38.25856079 -22.17805481 37.43389893 C-22.18311678 35.73930434 -22.18546336 34.04469979 -22.18530273 32.35009766 C-22.18748006 29.77359271 -22.20561789 27.19752243 -22.22460938 24.62109375 C-22.22754539 22.97135562 -22.22952879 21.32161547 -22.23046875 19.671875 C-22.23765427 18.90808533 -22.24483978 18.14429565 -22.25224304 17.35736084 C-22.23194638 12.53784942 -21.52503982 8.57700828 -20 4 C-19.34 4 -18.68 4 -18 4 C-17.938125 3.38125 -17.87625 2.7625 -17.8125 2.125 C-17 0 -17 0 -14.875 -1.25 C-9.5703544 -2.63382059 -4.89671319 -2.59237757 0 0 Z " fill="#A762D5" transform="translate(711,239)"/>
<path d="M0 0 C5.99893463 5.72931959 7.82912023 10.54994625 8.14526367 18.78295898 C8.15848447 20.1872954 8.16577576 21.59169681 8.16796875 22.99609375 C8.17296135 24.12374901 8.17296135 24.12374901 8.17805481 25.27418518 C8.18309409 26.85669345 8.18546407 28.43921223 8.18530273 30.02172852 C8.18749024 32.42677485 8.20568038 34.83136267 8.22460938 37.23632812 C8.22754384 38.78124845 8.22952828 40.32617093 8.23046875 41.87109375 C8.23765427 42.5817247 8.24483978 43.29235565 8.25224304 44.02452087 C8.21930105 51.31429824 6.78657917 57.18704051 1.828125 62.5546875 C-3.46098049 66.73624526 -11.54510338 66.60917355 -18 66 C-20.42326615 65.48232252 -22.64787087 64.80072481 -25 64 C-25 63.34 -25 62.68 -25 62 C-25.8971875 61.62875 -25.8971875 61.62875 -26.8125 61.25 C-30.35758004 59.22423998 -31.72664719 56.82005844 -33 53 C-33.10508124 51.61046543 -33.15836805 50.2166198 -33.17700195 48.82324219 C-33.18983719 47.98517029 -33.20267242 47.14709839 -33.21589661 46.28363037 C-33.22328354 45.3805011 -33.23067047 44.47737183 -33.23828125 43.546875 C-33.246353 42.61329163 -33.25442474 41.67970825 -33.26274109 40.71783447 C-33.27657233 38.74078218 -33.28729878 36.76370611 -33.29516602 34.78662109 C-33.31235586 31.77525073 -33.35624787 28.76498499 -33.40039062 25.75390625 C-33.41052006 23.83073722 -33.41903538 21.90755888 -33.42578125 19.984375 C-33.44328934 19.08934265 -33.46079742 18.1943103 -33.47883606 17.27215576 C-33.45835374 11.31641827 -32.43782974 7.89389363 -29 3 C-21.3402091 -4.45821745 -9.21842483 -5.32992563 0 0 Z " fill="#A662D5" transform="translate(475,240)"/>
<path d="M0 0 C3.95777245 2.28231545 6.84149007 4.68356457 10 8 C11.2684375 9.2375 11.2684375 9.2375 12.5625 10.5 C14.89448943 12.89178403 16.91515471 15.39394339 19 18 C21.54650634 20.61180138 24.14568804 23.13597551 26.8125 25.625 C29 28 29 28 29 31 C27.37204792 32.87872533 25.74545872 34.5780053 23.9609375 36.296875 C23.44246246 36.80873352 22.92398743 37.32059204 22.38980103 37.84796143 C20.72512703 39.48920162 19.05069005 41.12001496 17.375 42.75 C15.19154354 44.8868096 13.01246062 47.02800482 10.8359375 49.171875 C10.31424484 49.6845694 9.79255219 50.19726379 9.25505066 50.72549438 C5.61432173 54.32685954 2.27362283 58.06736636 -1 62 C-2.64295195 63.36244796 -4.30824337 64.69864875 -6 66 C-7.68762851 67.6454378 -9.3540349 69.31288577 -11 71 C-13.51090797 73.51090797 -16.02076025 76.0202539 -18.5625 78.5 C-20.99456247 80.89390968 -20.99456247 80.89390968 -22.8125 83.375 C-25.31159325 86.3739119 -28.08535632 88.76959114 -31.04296875 91.3046875 C-34.38599441 94.20064187 -37.38215137 97.21860321 -40.125 100.6875 C-42 103 -42 103 -45 105 C-48.30379406 104.67823353 -49.95076557 103.41811307 -52.234375 101.09375 C-52.80800781 100.51496094 -53.38164062 99.93617188 -53.97265625 99.33984375 C-54.85244141 98.42912109 -54.85244141 98.42912109 -55.75 97.5 C-56.35199219 96.89285156 -56.95398438 96.28570312 -57.57421875 95.66015625 C-62 91.15408872 -62 91.15408872 -62 90 C-56.39 90 -50.78 90 -45 90 C-45 78.12 -45 66.24 -45 54 C-31 53.6875 -31 53.6875 -26.6328125 53.61206055 C-16.68528008 53.32750906 -9.23717646 52.23717646 -2 45 C-1.06221856 42.25246373 -0.85710252 39.67160245 -0.79467773 36.78222656 C-0.77473251 35.96167786 -0.75478729 35.14112915 -0.73423767 34.29571533 C-0.71752518 33.41953552 -0.70081268 32.54335571 -0.68359375 31.640625 C-0.66281265 30.73624695 -0.64203156 29.8318689 -0.62062073 28.90008545 C-0.5553406 26.01679945 -0.49634048 23.1334239 -0.4375 20.25 C-0.39429429 18.29295956 -0.35067935 16.33592812 -0.30664062 14.37890625 C-0.19968128 9.5860288 -0.09835327 4.79306146 0 0 Z " fill="#A162E0" transform="translate(324,248)"/>
<path d="M0 0 C3.57879298 1.70995182 4.95790566 3.1056199 6.7824707 6.72460938 C8.76701497 12.50454046 8.46967832 18.37094401 8.390625 24.4140625 C8.38638016 25.64572144 8.38213531 26.87738037 8.37776184 28.1463623 C8.36104374 32.05873994 8.32340287 35.97059199 8.28515625 39.8828125 C8.26840077 42.54426329 8.2564138 45.20570915 8.24414062 47.8671875 C8.21116249 54.37259663 8.15942648 60.87761562 8.09765625 67.3828125 C2.48765625 67.3828125 -3.12234375 67.3828125 -8.90234375 67.3828125 C-9.23234375 49.5628125 -9.56234375 31.7428125 -9.90234375 13.3828125 C-11.55234375 13.7128125 -13.20234375 14.0428125 -14.90234375 14.3828125 C-15.23234375 31.8728125 -15.56234375 49.3628125 -15.90234375 67.3828125 C-21.51234375 67.3828125 -27.12234375 67.3828125 -32.90234375 67.3828125 C-32.90234375 45.2728125 -32.90234375 23.1628125 -32.90234375 0.3828125 C-26.96234375 0.3828125 -21.02234375 0.3828125 -14.90234375 0.3828125 C-14.90234375 1.3728125 -14.90234375 2.3628125 -14.90234375 3.3828125 C-14.24234375 3.3828125 -13.58234375 3.3828125 -12.90234375 3.3828125 C-12.90234375 2.7228125 -12.90234375 2.0628125 -12.90234375 1.3828125 C-8.8018533 -1.24150139 -4.63019671 -1.50219934 0 0 Z " fill="#A764D6" transform="translate(631.90234375,237.6171875)"/>
<path d="M0 0 C1.85397358 3.65731559 2.24542869 6.63754455 2.22705078 10.70825195 C2.22689972 11.82903641 2.22674866 12.94982086 2.22659302 14.10456848 C2.21627045 15.3036937 2.20594788 16.50281891 2.1953125 17.73828125 C2.1924826 18.97418503 2.18965271 20.21008881 2.18673706 21.48344421 C2.17745218 24.75664997 2.15950633 28.02965644 2.1373291 31.30279541 C2.11680817 34.64780848 2.10789268 37.99283026 2.09765625 41.33789062 C2.07561791 47.8920148 2.04109903 54.44596875 2 61 C-3.61 61 -9.22 61 -15 61 C-15.495 60.01 -15.495 60.01 -16 59 C-16.78375 59.515625 -17.5675 60.03125 -18.375 60.5625 C-23.10401088 62.43779742 -27.09284077 62.27942435 -32 61 C-35.16090722 59.37989343 -35.90072001 58.24898791 -37.23046875 54.9140625 C-38.13148336 50.33123691 -38.3306922 46.03220327 -38.3125 41.375 C-38.32861328 40.54226563 -38.34472656 39.70953125 -38.36132812 38.8515625 C-38.36512949 34.07705124 -38.16326244 30.81796817 -35 27 C-31.23975306 23.33853363 -27.72579069 22.06843121 -22.6875 20.75 C-21.43324219 20.41484375 -20.17898438 20.0796875 -18.88671875 19.734375 C-17.93410156 19.49203125 -16.98148438 19.2496875 -16 19 C-16 14.71 -16 10.42 -16 6 C-17.32 6.33 -18.64 6.66 -20 7 C-20.33 9.64 -20.66 12.28 -21 15 C-23.64590014 15.02684679 -26.29153096 15.04676357 -28.9375 15.0625 C-29.69224609 15.07087891 -30.44699219 15.07925781 -31.22460938 15.08789062 C-33.14994313 15.09652441 -35.07535581 15.05224333 -37 15 C-38 14 -38 14 -38.0546875 11.7421875 C-37.62699338 4.91767703 -36.65011926 1.0826885 -32 -4 C-22.22721194 -10.93552701 -8.44393332 -6.67659844 0 0 Z " fill="#A762D5" transform="translate(682,244)"/>
<path d="M0 0 C3.3833563 4.76176072 4.12696427 8.65929261 4.11352539 14.41113281 C4.11344986 15.49195129 4.11337433 16.57276978 4.11329651 17.68634033 C4.10813522 18.84687927 4.10297394 20.00741821 4.09765625 21.203125 C4.0962413 22.39605164 4.09482635 23.58897827 4.09336853 24.8180542 C4.08777038 28.62872829 4.07521819 32.43934366 4.0625 36.25 C4.05748476 38.83333248 4.0529219 41.41666589 4.04882812 44 C4.03780155 50.33335596 4.02053814 56.66666803 4 63 C-1.28 63 -6.56 63 -12 63 C-12 61.68 -12 60.36 -12 59 C-12.66 59 -13.32 59 -14 59 C-14.0928125 59.928125 -14.0928125 59.928125 -14.1875 60.875 C-15 63 -15 63 -17 64.3125 C-21.18628096 65.27185605 -24.84271398 65.06457605 -29 64 C-32.26786041 61.79419422 -32.8619141 60.59837224 -33.75 56.75 C-33.8325 55.8425 -33.915 54.935 -34 54 C-34.66 54 -35.32 54 -36 54 C-37.03207669 35.0403689 -37.03207669 35.0403689 -33.5 30 C-30.14433327 26.55665551 -26.60351402 25.20747909 -22 24 C-21.01 24 -20.02 24 -19 24 C-19 23.34 -19 22.68 -19 22 C-17.02 21.67 -15.04 21.34 -13 21 C-13.33 17.04 -13.66 13.08 -14 9 C-14.99 9.33 -15.98 9.66 -17 10 C-17.33 12.64 -17.66 15.28 -18 18 C-20.81256281 18.02684312 -23.62487241 18.04676188 -26.4375 18.0625 C-27.23994141 18.07087891 -28.04238281 18.07925781 -28.86914062 18.08789062 C-30.91295221 18.0965143 -32.95683902 18.0522815 -35 18 C-36 17 -36 17 -36.25 13.875 C-35.88841543 8.27043912 -34.24701115 4.55876394 -30.75 0.1875 C-22.67033637 -6.23950516 -8.48335527 -5.7565625 0 0 Z " fill="#A763D5" transform="translate(590,241)"/>
<path d="M0 0 C5.28368732 5.59449246 4.3708917 13.48481543 4.25 20.6875 C4.20875 24.173125 4.1675 27.65875 4.125 31.25 C-3.465 31.25 -11.055 31.25 -18.875 31.25 C-18.545 37.85 -18.215 44.45 -17.875 51.25 C-16.225 51.25 -14.575 51.25 -12.875 51.25 C-12.875 46.63 -12.875 42.01 -12.875 37.25 C-7.265 37.25 -1.655 37.25 4.125 37.25 C4.48389799 51.78536858 4.48389799 51.78536858 0.125 58.1875 C-0.535 58.868125 -1.195 59.54875 -1.875 60.25 C-2.535 60.25 -3.195 60.25 -3.875 60.25 C-3.875 60.91 -3.875 61.57 -3.875 62.25 C-12.3960697 64.68459134 -19.38789069 65.07903644 -27.875 62.25 C-30.75196445 60.11071875 -31.68204458 58.95750321 -32.625 55.5 C-32.7075 54.7575 -32.79 54.015 -32.875 53.25 C-33.535 53.25 -34.195 53.25 -34.875 53.25 C-35.66694475 50.44447629 -36.0086009 47.93168164 -36.03613281 45.01977539 C-36.04574036 44.19534439 -36.0553479 43.37091339 -36.06524658 42.52149963 C-36.06949646 41.63913132 -36.07374634 40.756763 -36.078125 39.84765625 C-36.08382507 38.93294052 -36.08952515 38.01822479 -36.09539795 37.07579041 C-36.10483216 35.14339347 -36.11137565 33.21098056 -36.11523438 31.27856445 C-36.12495325 28.32670051 -36.15599681 25.37552917 -36.1875 22.42382812 C-36.19402925 20.54427496 -36.19928003 18.66471683 -36.203125 16.78515625 C-36.2154718 15.90481216 -36.2278186 15.02446808 -36.24053955 14.1174469 C-36.21922647 8.24015117 -35.21506636 4.96447698 -31.3125 0.4375 C-29.875 -0.75 -29.875 -0.75 -27.875 -0.75 C-27.875 -1.41 -27.875 -2.07 -27.875 -2.75 C-17.83808662 -6.24110031 -9.07072716 -5.52131218 0 0 Z " fill="#A561D5" transform="translate(770.875,241.75)"/>
<path d="M0 0 C27 0 27 0 34 4 C38.03467947 10.45548715 38.20688343 16.35550811 38.25 23.75 C38.270625 24.61882812 38.29125 25.48765625 38.3125 26.3828125 C38.35355531 33.21852097 37.47638438 38.98190654 33 44.4375 C27.63296138 48.63049892 23.57420551 47 16 47 C16 57.56 16 68.12 16 79 C10.72 79 5.44 79 0 79 C0 52.93 0 26.86 0 0 Z " fill="#9E5AD4" transform="translate(368,226)"/>
<path d="M0 0 C0 30.03 0 60.06 0 91 C-3.99100292 89.00449854 -5.96027007 87.18800944 -9 84 C-9.825 83.175 -10.65 82.35 -11.5 81.5 C-14 79 -16.5 76.5 -19 74 C-19.845625 73.175 -20.69125 72.35 -21.5625 71.5 C-24 69 -24 69 -26 66.4375 C-28.11878607 63.85522947 -30.37202922 62.05109914 -33 60 C-34.68762851 58.3545622 -36.3540349 56.68711423 -38 55 C-38.845625 54.175 -39.69125 53.35 -40.5625 52.5 C-42.89273065 50.11001985 -44.93542178 47.61891529 -47 45 C-41.17313814 39.12687072 -35.34094818 33.25910753 -29.50181007 27.39818573 C-26.79085886 24.67678134 -24.08180582 21.9535412 -21.37695312 19.22607422 C-18.76830485 16.59575215 -16.15485194 13.97029488 -13.53794479 11.34819031 C-12.53861912 10.34515903 -11.54106023 9.34036439 -10.54527664 8.33381653 C-9.1541265 6.92822458 -7.75618259 5.5293663 -6.35791016 4.13085938 C-5.56293121 3.33143921 -4.76795227 2.53201904 -3.94888306 1.70837402 C-2 0 -2 0 0 0 Z " fill="#A161E0" transform="translate(248,232)"/>
<path d="M0 0 C0 4.62 0 9.24 0 14 C-3.63 14.66 -7.26 15.32 -11 16 C-11.33 33.16 -11.66 50.32 -12 68 C-17.61 68 -23.22 68 -29 68 C-29 45.89 -29 23.78 -29 1 C-23.39 1 -17.78 1 -12 1 C-11.67 2.32 -11.34 3.64 -11 5 C-10.401875 4.360625 -9.80375 3.72125 -9.1875 3.0625 C-6.05003755 0.10432112 -4.32229546 0 0 0 Z " fill="#A562D5" transform="translate(439,237)"/>
<path d="M0 0 C2.91718352 2.67408489 5.46356902 5.52924233 8 8.5625 C10.43195146 11.44227883 13.00554608 13.69657391 16 16 C17.68762851 17.6454378 19.3540349 19.31288577 21 21 C22.36125 22.299375 22.36125 22.299375 23.75 23.625 C26 26 26 26 27 29 C8.85 28.67 -9.3 28.34 -28 28 C-26.00945037 24.01890074 -23.72506874 21.43475619 -20.625 18.359375 C-19.83730225 17.56880707 -19.83730225 17.56880707 -19.03369141 16.76226807 C-17.92661117 15.65383072 -16.8170167 14.54789954 -15.70507812 13.44433594 C-13.99893025 11.74893699 -12.30375953 10.0430839 -10.609375 8.3359375 C-9.53189108 7.25977442 -8.45378733 6.18423149 -7.375 5.109375 C-6.61243896 4.34074127 -6.61243896 4.34074127 -5.83447266 3.55657959 C-2.22994091 0 -2.22994091 0 0 0 Z " fill="#A162E0" transform="translate(279,201)"/>
<path d="M0 0 C4.62 0 9.24 0 14 0 C15.76525293 1.76525293 15.13028055 4.2891609 15.1328125 6.6796875 C15.13474609 8.41412109 15.13474609 8.41412109 15.13671875 10.18359375 C15.13285156 11.40175781 15.12898438 12.61992187 15.125 13.875 C15.12886719 15.08542969 15.13273437 16.29585938 15.13671875 17.54296875 C15.13542969 18.70183594 15.13414062 19.86070312 15.1328125 21.0546875 C15.13168457 22.12187012 15.13055664 23.18905273 15.12939453 24.28857422 C15 27 15 27 14 30 C9.38 30 4.76 30 0 30 C0 20.1 0 10.2 0 0 Z " fill="#A366DE" transform="translate(279,251)"/>
<path d="M0 0 C2.5 0.3125 2.5 0.3125 5 1 C6.59969413 4.19938827 6.14181878 7.67049328 6.1328125 11.18359375 C6.13376923 11.9949025 6.13472595 12.80621124 6.13571167 13.6421051 C6.13639271 15.35946734 6.13454372 17.07683215 6.13037109 18.79418945 C6.12502865 21.42339876 6.13031507 24.0524367 6.13671875 26.68164062 C6.13605782 28.34895871 6.13477635 30.01627669 6.1328125 31.68359375 C6.13483673 32.47116562 6.13686096 33.25873749 6.13894653 34.07017517 C6.12504608 37.30735953 6.03104833 39.906855 5 43 C3.02 43 1.04 43 -1 43 C-1.02464574 37.03686834 -1.042834 31.07376605 -1.05493164 25.1105957 C-1.05997278 23.08031702 -1.06680557 21.05004198 -1.07543945 19.01977539 C-1.08751467 16.10822653 -1.09323034 13.1967255 -1.09765625 10.28515625 C-1.10281754 9.3716188 -1.10797882 8.45808136 -1.11329651 7.51686096 C-1.11349168 5.34424573 -1.06211805 3.17172704 -1 1 C-0.67 0.67 -0.34 0.34 0 0 Z " fill="#F4EBF9" transform="translate(460,250)"/>
<path d="M0 0 C1.65 0.33 3.3 0.66 5 1 C6.80591979 6.41775938 6.18467264 12.26863528 6.1875 17.9375 C6.19974609 19.22591797 6.21199219 20.51433594 6.22460938 21.84179688 C6.22654297 23.07865234 6.22847656 24.31550781 6.23046875 25.58984375 C6.23457764 26.72284912 6.23868652 27.85585449 6.24291992 29.02319336 C6.00724647 31.91119974 5.50363523 33.55999148 4 36 C0.125 35.125 0.125 35.125 -1 34 C-1.10081087 31.64768301 -1.13972939 29.32538053 -1.1328125 26.97265625 C-1.13376923 26.26854111 -1.13472595 25.56442596 -1.13571167 24.838974 C-1.13639341 23.34683137 -1.13453952 21.85468579 -1.13037109 20.36254883 C-1.12503063 18.07561582 -1.1303121 15.78887992 -1.13671875 13.50195312 C-1.13605781 12.05468707 -1.13477632 10.60742113 -1.1328125 9.16015625 C-1.13483673 8.47365494 -1.13686096 7.78715363 -1.13894653 7.07984924 C-1.11495764 2.22991527 -1.11495764 2.22991527 0 0 Z " fill="#F7F1FB" transform="translate(707,250)"/>
<path d="M0 0 C0.33 0 0.66 0 1 0 C1 16.83 1 33.66 1 51 C-1.52128356 48.47871644 -1.29353069 47.48760987 -1.4140625 43.9921875 C-1.45273437 43.00605469 -1.49140625 42.01992188 -1.53125 41.00390625 C-1.5621875 39.97136719 -1.593125 38.93882812 -1.625 37.875 C-1.66367187 36.83472656 -1.70234375 35.79445313 -1.7421875 34.72265625 C-1.83664766 32.14861689 -1.92221214 29.57458845 -2 27 C-2.66 27.66 -3.32 28.32 -4 29 C-3.85811015 26.45805839 -3.71160845 23.91652007 -3.5625 21.375 C-3.52318359 20.66214844 -3.48386719 19.94929688 -3.44335938 19.21484375 C-3.19690319 15.08196318 -2.76529947 11.07730976 -2 7 C-1.34 7 -0.68 7 0 7 C0 4.69 0 2.38 0 0 Z " fill="#EFE2F7" transform="translate(534,254)"/>
<path d="M0 0 C0.02895225 3.29164829 0.0467823 6.58326399 0.0625 9.875 C0.07087891 10.81214844 0.07925781 11.74929688 0.08789062 12.71484375 C0.09111328 13.61074219 0.09433594 14.50664062 0.09765625 15.4296875 C0.10289307 16.25710449 0.10812988 17.08452148 0.11352539 17.93701172 C0 20 0 20 -1 22 C-2.65 22 -4.3 22 -6 22 C-6.11613204 18.89614789 -6.18722029 15.79285338 -6.25 12.6875 C-6.28351562 11.80642578 -6.31703125 10.92535156 -6.3515625 10.01757812 C-6.45066069 3.50187213 -6.45066069 3.50187213 -4.109375 0.89453125 C-2 0 -2 0 0 0 Z " fill="#F7F0FB" transform="translate(667,271)"/>
<path d="M0 0 C0 7.26 0 14.52 0 22 C-5 21 -5 21 -6 20 C-6.18023553 17.19305317 -6.27807437 14.43413173 -6.3125 11.625 C-6.34150391 10.84382813 -6.37050781 10.06265625 -6.40039062 9.2578125 C-6.46447686 3.49991117 -6.46447686 3.49991117 -4.10546875 0.9609375 C-2 0 -2 0 0 0 Z " fill="#F5EDFA" transform="translate(577,271)"/>
<path d="M0 0 C0.99 0 1.98 0 3 0 C3 0.66 3 1.32 3 2 C3.99 2 4.98 2 6 2 C7.29758261 4.59516521 7.13269102 6.54183027 7.125 9.4375 C7.12757813 10.40558594 7.13015625 11.37367188 7.1328125 12.37109375 C7 15 7 15 6 18 C4.02 18.33 2.04 18.66 0 19 C0 12.73 0 6.46 0 0 Z " fill="#ECE0F7" transform="translate(384,240)"/>
<path d="M0 0 C1.32 0 2.64 0 4 0 C5.44207941 2.88415883 5.09394887 5.41721528 5.0625 8.625 C5.05347656 9.81351562 5.04445313 11.00203125 5.03515625 12.2265625 C5.02355469 13.14179688 5.01195312 14.05703125 5 15 C3.02 15 1.04 15 -1 15 C-1.02685412 12.68756208 -1.04632841 10.3750373 -1.0625 8.0625 C-1.07410156 6.77472656 -1.08570313 5.48695313 -1.09765625 4.16015625 C-1 1 -1 1 0 0 Z " fill="#F8F4FC" transform="translate(753,250)"/>
<path d="M0 0 C0.99 0.66 1.98 1.32 3 2 C3 2.66 3 3.32 3 4 C-15.15 3.67 -33.3 3.34 -52 3 C-51.67 2.34 -51.34 1.68 -51 1 C-34.17 1.33 -17.34 1.66 0 2 C0 1.34 0 0.68 0 0 Z " fill="#BF97D9" transform="translate(303,226)"/>
<path d="M0 0 C2.29633824 3.44450737 2.54016485 5.93812283 3 10 C2.67 10 2.34 10 2 10 C1.67 21.22 1.34 32.44 1 44 C0.67 44 0.34 44 0 44 C0 29.48 0 14.96 0 0 Z " fill="#EFE2F7" transform="translate(503,261)"/>
<path d="M0 0 C0.33 0 0.66 0 1 0 C1 6.93 1 13.86 1 21 C0.67 21 0.34 21 0 21 C-0.33 19.02 -0.66 17.04 -1 15 C-1.33 16.98 -1.66 18.96 -2 21 C-2.33 21 -2.66 21 -3 21 C-3.08333357 16.1666528 -2.95261487 11.76307437 -2 7 C-1.34 7 -0.68 7 0 7 C0 4.69 0 2.38 0 0 Z " fill="#D4B5EC" transform="translate(534,254)"/>
</svg>
