<?xml version="1.0" encoding="UTF-8"?>
<svg version="1.1" xmlns="http://www.w3.org/2000/svg" width="182" height="225">
<path d="M0 0 C60.06 0 120.12 0 182 0 C182 74.25 182 148.5 182 225 C121.94 225 61.88 225 0 225 C0 150.75 0 76.5 0 0 Z " fill="#FEFEFE" transform="translate(0,0)"/>
<path d="M0 0 C2.91718352 2.67408489 5.46356902 5.52924233 8 8.5625 C10.43195146 11.44227883 13.00554608 13.69657391 16 16 C18.47634358 18.41443499 20.87412366 20.86137952 23.19921875 23.421875 C26.37171377 26.3421633 29.44119841 28.00642418 33.3125 29.8125 C33.95767578 30.12380859 34.60285156 30.43511719 35.26757812 30.75585938 C36.84059344 31.51323712 38.41969126 32.25796058 40 33 C40 33.66 40 34.32 40 35 C40.66 35 41.32 35 42 35 C43.71146412 38.1252823 44.94747278 40.5622732 45.375 44.125 C46.21231241 47.97663707 47.82736142 48.76473191 51 51 C54.94635237 54.73303602 58.49123788 58.79025831 62.08203125 62.859375 C65.16045885 66.29517607 68.44164608 69.47886967 71.8125 72.625 C74 75 74 75 74 78 C72.37204792 79.87872533 70.74545872 81.5780053 68.9609375 83.296875 C68.44246246 83.80873352 67.92398743 84.32059204 67.38980103 84.84796143 C65.72512703 86.48920162 64.05069005 88.12001496 62.375 89.75 C60.19154354 91.8868096 58.01246062 94.02800482 55.8359375 96.171875 C55.31424484 96.6845694 54.79255219 97.19726379 54.25505066 97.72549438 C50.61432173 101.32685954 47.27362283 105.06736636 44 109 C42.35704805 110.36244796 40.69175663 111.69864875 39 113 C37.31237149 114.6454378 35.6459651 116.31288577 34 118 C31.48909203 120.51090797 28.97923975 123.0202539 26.4375 125.5 C24.00543753 127.89390968 24.00543753 127.89390968 22.1875 130.375 C19.68840675 133.3739119 16.91464368 135.76959114 13.95703125 138.3046875 C10.61400559 141.20064187 7.61784863 144.21860321 4.875 147.6875 C3 150 3 150 0 152 C-4.0840777 151.60830836 -5.65266962 149.34956915 -8.26489258 146.33862305 C-13.60460869 140.06537349 -13.60460869 140.06537349 -20.96484375 136.91796875 C-24.3707189 136.71396202 -27.60438248 136.68945627 -31 137 C-31.01417969 136.03578125 -31.02835938 135.0715625 -31.04296875 134.078125 C-31.09066406 132.81484375 -31.13835938 131.5515625 -31.1875 130.25 C-31.23970703 128.37054688 -31.23970703 128.37054688 -31.29296875 126.453125 C-32.1672699 122.1830575 -33.4745422 121.38906585 -37 119 C-38.40625 117.21875 -38.40625 117.21875 -39.5 115.5 C-41.64476882 112.34632124 -43.98200726 110.35550653 -47 108 C-48.02102341 106.85168719 -49.01975507 105.68331357 -50 104.5 C-52.42858092 101.58073393 -54.98213601 99.32143384 -58 97 C-59.68762851 95.3545622 -61.3540349 93.68711423 -63 92 C-63.825 91.175 -64.65 90.35 -65.5 89.5 C-66.325 88.675 -67.15 87.85 -68 87 C-68.825 86.195625 -69.65 85.39125 -70.5 84.5625 C-73.17621765 81.81937691 -75.56136105 78.95481753 -78 76 C-77.45986771 75.46208832 -76.91973541 74.92417664 -76.36323547 74.3699646 C-71.25575624 69.28258154 -66.15073183 64.19275336 -61.04839802 59.10021019 C-58.42560598 56.48262093 -55.80189856 53.8659635 -53.17602539 51.25146484 C-50.63859297 48.72495431 -48.10366183 46.19595827 -45.57039452 43.66527176 C-44.60690873 42.70362354 -43.64254809 41.74285098 -42.67727089 40.78300095 C-36.67588295 34.87021482 -36.67588295 34.87021482 -31.09887695 28.56518555 C-29.27464406 26.33566188 -27.51758456 24.56881423 -25.3046875 22.74609375 C-19.3564126 17.67092167 -13.9953491 12.00439103 -8.5390625 6.41210938 C-7.724375 5.58646484 -6.9096875 4.76082031 -6.0703125 3.91015625 C-5.33570801 3.15871338 -4.60110352 2.40727051 -3.84423828 1.63305664 C-2 0 -2 0 0 0 Z " fill="#F3F3CC" transform="translate(93,42)"/>
<path d="M0 0 C3.95777245 2.28231545 6.84149007 4.68356457 10 8 C11.2684375 9.2375 11.2684375 9.2375 12.5625 10.5 C14.89448943 12.89178403 16.91515471 15.39394339 19 18 C21.54650634 20.61180138 24.14568804 23.13597551 26.8125 25.625 C29 28 29 28 29 31 C27.37204792 32.87872533 25.74545872 34.5780053 23.9609375 36.296875 C23.44246246 36.80873352 22.92398743 37.32059204 22.38980103 37.84796143 C20.72512703 39.48920162 19.05069005 41.12001496 17.375 42.75 C15.19154354 44.8868096 13.01246062 47.02800482 10.8359375 49.171875 C10.31424484 49.6845694 9.79255219 50.19726379 9.25505066 50.72549438 C5.61432173 54.32685954 2.27362283 58.06736636 -1 62 C-2.64295195 63.36244796 -4.30824337 64.69864875 -6 66 C-7.68762851 67.6454378 -9.3540349 69.31288577 -11 71 C-13.51090797 73.51090797 -16.02076025 76.0202539 -18.5625 78.5 C-20.99456247 80.89390968 -20.99456247 80.89390968 -22.8125 83.375 C-25.31159325 86.3739119 -28.08535632 88.76959114 -31.04296875 91.3046875 C-34.38599441 94.20064187 -37.38215137 97.21860321 -40.125 100.6875 C-42 103 -42 103 -45 105 C-48.30379406 104.67823353 -49.95076557 103.41811307 -52.234375 101.09375 C-52.80800781 100.51496094 -53.38164063 99.93617188 -53.97265625 99.33984375 C-54.85244141 98.42912109 -54.85244141 98.42912109 -55.75 97.5 C-56.35199219 96.89285156 -56.95398438 96.28570312 -57.57421875 95.66015625 C-62 91.15408872 -62 91.15408872 -62 90 C-56.39 90 -50.78 90 -45 90 C-45 78.12 -45 66.24 -45 54 C-31 53.6875 -31 53.6875 -26.6328125 53.61206055 C-16.68528008 53.32750906 -9.23717646 52.23717646 -2 45 C-1.06221856 42.25246373 -0.85710252 39.67160245 -0.79467773 36.78222656 C-0.77473251 35.96167786 -0.75478729 35.14112915 -0.73423767 34.29571533 C-0.71752518 33.41953552 -0.70081268 32.54335571 -0.68359375 31.640625 C-0.66281265 30.73624695 -0.64203156 29.8318689 -0.62062073 28.90008545 C-0.5553406 26.01679945 -0.49634048 23.1334239 -0.4375 20.25 C-0.39429429 18.29295956 -0.35067935 16.33592812 -0.30664062 14.37890625 C-0.19968128 9.5860288 -0.09835327 4.79306146 0 0 Z " fill="#A162E0" transform="translate(138,89)"/>
<path d="M0 0 C0 30.03 0 60.06 0 91 C-3.99100292 89.00449854 -5.96027007 87.18800944 -9 84 C-9.825 83.175 -10.65 82.35 -11.5 81.5 C-14 79 -16.5 76.5 -19 74 C-19.845625 73.175 -20.69125 72.35 -21.5625 71.5 C-24 69 -24 69 -26 66.4375 C-28.11878607 63.85522947 -30.37202922 62.05109914 -33 60 C-34.68762851 58.3545622 -36.3540349 56.68711423 -38 55 C-38.845625 54.175 -39.69125 53.35 -40.5625 52.5 C-42.89273065 50.11001985 -44.93542178 47.61891529 -47 45 C-41.17313814 39.12687072 -35.34094818 33.25910753 -29.50181007 27.39818573 C-26.79085886 24.67678134 -24.08180582 21.9535412 -21.37695312 19.22607422 C-18.76830485 16.59575215 -16.15485194 13.97029488 -13.53794479 11.34819031 C-12.53861912 10.34515903 -11.54106023 9.34036439 -10.54527664 8.33381653 C-9.1541265 6.92822458 -7.75618259 5.5293663 -6.35791016 4.13085938 C-5.56293121 3.33143921 -4.76795227 2.53201904 -3.94888306 1.70837402 C-2 0 -2 0 0 0 Z " fill="#A161E0" transform="translate(62,73)"/>
<path d="M0 0 C2.91718352 2.67408489 5.46356902 5.52924233 8 8.5625 C10.43195146 11.44227883 13.00554608 13.69657391 16 16 C17.68762851 17.6454378 19.3540349 19.31288577 21 21 C22.36125 22.299375 22.36125 22.299375 23.75 23.625 C26 26 26 26 27 29 C8.85 28.67 -9.3 28.34 -28 28 C-26.00945037 24.01890074 -23.72506874 21.43475619 -20.625 18.359375 C-19.83730225 17.56880707 -19.83730225 17.56880707 -19.03369141 16.76226807 C-17.92661117 15.65383072 -16.8170167 14.54789954 -15.70507812 13.44433594 C-13.99893025 11.74893699 -12.30375953 10.0430839 -10.609375 8.3359375 C-9.53189108 7.25977442 -8.45378733 6.18423149 -7.375 5.109375 C-6.61243896 4.34074127 -6.61243896 4.34074127 -5.83447266 3.55657959 C-2.22994091 0 -2.22994091 0 0 0 Z " fill="#A162E0" transform="translate(93,42)"/>
<path d="M0 0 C4.62 0 9.24 0 14 0 C15.76525293 1.76525293 15.13028055 4.2891609 15.1328125 6.6796875 C15.13474609 8.41412109 15.13474609 8.41412109 15.13671875 10.18359375 C15.13285156 11.40175781 15.12898438 12.61992188 15.125 13.875 C15.12886719 15.08542969 15.13273437 16.29585937 15.13671875 17.54296875 C15.13542969 18.70183594 15.13414063 19.86070313 15.1328125 21.0546875 C15.13168457 22.12187012 15.13055664 23.18905273 15.12939453 24.28857422 C15 27 15 27 14 30 C9.38 30 4.76 30 0 30 C0 20.1 0 10.2 0 0 Z " fill="#A366DE" transform="translate(93,92)"/>
<path d="M0 0 C0.99 0.66 1.98 1.32 3 2 C3 2.66 3 3.32 3 4 C-15.15 3.67 -33.3 3.34 -52 3 C-51.67 2.34 -51.34 1.68 -51 1 C-34.17 1.33 -17.34 1.66 0 2 C0 1.34 0 0.68 0 0 Z " fill="#BF97D9" transform="translate(117,67)"/>
</svg>
