<?xml version="1.0" encoding="UTF-8"?>
<svg version="1.1" viewBox="0 0 2048 1697" width="1280" height="1280" xmlns="http://www.w3.org/2000/svg">
<path transform="translate(0)" d="m0 0h2048v1697h-2048z" fill="#6177E2"/>
<path transform="translate(1056,288)" d="m0 0 5 2 21 16 33 22 28 19 20 14 19 13 16 11 17 12 19 12 10 7 24 16 20 14 16 11 25 17 23 16 32 21 17 11 18 12 14 9 33 22 19 13 18 12 31 21 24 16 22 15 20 14 36 26 12 9 10 9 3 4 1 71v198l-1 171-2 18-6 10-10 10-17 13-150 100-17 11-15 10-25 16-57 38-35 23-24 16-56 38-16 11-18 13-12 8-20 14-44 29-22 14-19 12-15 10-19 10-6 2h-13l-13-7-15-10-42-26-18-11-12-8-23-15-36-24-20-14-42-28-35-23-20-14-22-15-19-12-15-10-16-11-37-25-20-14-32-22-15-10-17-11-45-30-22-15-19-13-11-8-13-10-10-9-6-7-4-10-1-6v-20l1-29 1-70 1-34v-73l-4-111v-47l1-47 2-16 5-9 8-8 14-9 17-10 19-13 17-12 17-11 22-14 13-9 51-34 44-29 43-29 26-17 20-13 25-16 23-15 18-12 22-15 17-12 20-14 19-14 19-13 19-14 19-13 21-16 18-12 19-13 15-10 14-8z" fill="#B75AF4"/>
<path transform="translate(1617,749)" d="m0 0h3l2 8 2 47v328l-1 14-6 8-13 10-15 10-16 11-20 14-18 13-33 22-25 17-10 7-25 16-30 20-43 29-44 29-48 33-15 11-12 8-32 22-13 10-12 9-14 10-16 11-34 22-25 16-15 9-14 8h-3l-1-12v-186l2-175 1-26 2-7 13-11 23-16 19-13 15-11 24-16 10-7 17-11 34-23 13-9 54-36 22-15 34-24 16-10 44-30 12-8 20-14 28-19 13-9 44-29 15-10 18-11 27-18 20-13z" fill="#6177E2"/>
<path transform="translate(496,756)" d="m0 0 10 3 11 6 11 8 15 11 19 13 13 10 12 8 15 11 17 12 13 9 18 13 16 10 20 13 26 16 17 11 26 16 34 23 20 14 24 16 17 12 10 7 19 14 15 10 10 7 27 18 20 14 19 13 27 18 14 9 12 9 8 9 2 5 1 18v254l-1 120-8-3-17-10-23-16-16-10-30-20-22-15-23-15-25-16-18-12-17-11-15-10-38-25-18-12-50-34-16-11-13-9-22-15-17-12-25-16-18-12-19-12-22-14-12-8-16-11-17-12-11-9-9-8-6-9-2-13-1-23v-172l1-44 2-57 3-55z" fill="#6177E2"/>
<path transform="translate(1075,350)" d="m0 0 6 2 18 10 16 10 23 16 16 12 25 16 14 10 19 13 13 9 40 26 12 8 17 12 11 8 20 14 16 11 17 12 19 13 17 12 25 16 21 13 20 13 51 34 23 16 25 16 16 11 25 17 4 4-1 6-10 8-13 8-14 10-13 11-34 26-19 13-20 14-37 25-45 30-22 15-33 22-22 14-9 6h-5l-10-7-11-7-14-10-19-13-51-34-16-10-28-19-12-8-19-14-13-9-18-14-13-10-11-8-1-2v-285l3-109z" fill="#6177E2"/>
<path transform="translate(1034,348)" d="m0 0h3v43l-1 51-1 118-2 175-2 16-5 6-17 13-18 13-19 13-15 11-18 13-19 13-11 8-16 10-17 11-26 14-24 14-16 9-11 6-7-2-26-16-17-11-26-16-33-21-10-7-15-10-44-29-19-14-19-13-14-10-22-15-18-13-16-13-8-9 3-5 9-8 14-10 43-29 20-14 16-11 19-13 22-15 31-21 20-14 63-42 16-10 18-12 44-29 15-10 13-9 16-11 20-14 24-16 11-8 44-29 15-10 27-15z" fill="#6177E2"/>
<path transform="translate(1055,784)" d="m0 0 6 1 9 7 8 9 17 13 15 10 43 29 19 12 16 11 15 10 29 19 22 14 10 7 12 6 1 4-7 6-4 5-16 10-34 23-18 13-30 20-22 14-21 14-22 14-26 15-14 9-7 6-5-1-12-10-18-13-20-14-11-7-24-16-11-8-38-26-18-12-38-25-19-13-11-8-4-3v-2l34-18 21-12 42-28 20-14 17-12 23-15 24-15 18-11 16-10z" fill="#6177E2"/>
</svg>
